HIERARCHY
ROOT hip
{
  OFFSET 0 0 0
  CHANNELS 6 Xposition Yposition Zposition Zrotation Yrotation Xrotation
  JOINT abdomen
  {
    OFFSET 0 20.6881 -0.73152
    CHANNELS 3 Zrotation Xrotation Yrotation
    JOINT chest
    {
      OFFSET 0 11.7043 -0.48768
      CHANNELS 3 Zrotation Xrotation Yrotation
      JOINT neck
      {
        OFFSET 0 22.1894 -2.19456
        CHANNELS 3 Zrotation Xrotation Yrotation
        JOINT head
        {
          OFFSET -0.24384 7.07133 1.2192
          CHANNELS 3 Zrotation Xrotation Yrotation
          JOINT leftEye
          {
            OFFSET 4.14528 8.04674 8.04672
            CHANNELS 3 Zrotation Xrotation Yrotation
            End Site
            {
              OFFSET 1 0 0
            }
          }
          JOINT rightEye
          {
            OFFSET -3.6576 8.04674 8.04672
            CHANNELS 3 Zrotation Xrotation Yrotation
            End Site
            {
              OFFSET 1 0 0
            }
          }
        }
      }
      JOINT rCollar
      {
        OFFSET -2.68224 19.2634 -4.8768
        CHANNELS 3 Zrotation Xrotation Yrotation
        JOINT rShldr
        {
          OFFSET -8.77824 -1.95073 1.46304
          CHANNELS 3 Zrotation Xrotation Yrotation
          JOINT rForeArm
          {
            OFFSET -28.1742 -1.7115 0.48768
            CHANNELS 3 Zrotation Xrotation Yrotation
            JOINT rHand
            {
              OFFSET -22.5879 0.773209 7.07136
              CHANNELS 3 Zrotation Xrotation Yrotation
              JOINT rThumb1
              {
                OFFSET -1.2192 -0.487915 3.41376
                CHANNELS 3 Zrotation Xrotation Yrotation
                JOINT rThumb2
                {
                  OFFSET -3.37035 -0.52449 3.41376
                  CHANNELS 3 Zrotation Xrotation Yrotation
                  End Site
                  {
                    OFFSET -1.78271 -1.18214 1.43049
                  }
                }
              }
              JOINT rIndex1
              {
                OFFSET -7.75947 0.938293 5.60832
                CHANNELS 3 Zrotation Xrotation Yrotation
                JOINT rIndex2
                {
                  OFFSET -2.54057 -0.884171 1.56538
                  CHANNELS 3 Zrotation Xrotation Yrotation
                  End Site
                  {
                    OFFSET -1.62519 -0.234802 1.16502
                  }
                }
              }
              JOINT rMid1
              {
                OFFSET -8.24714 1.18213 3.41376
                CHANNELS 3 Zrotation Xrotation Yrotation
                JOINT rMid2
                {
                  OFFSET -3.10165 -0.590103 1.0647
                  CHANNELS 3 Zrotation Xrotation Yrotation
                  End Site
                  {
                    OFFSET -2.48547 -0.328903 0.83742
                  }
                }
              }
              JOINT rRing1
              {
                OFFSET -8.82822 0.546677 1.51678
                CHANNELS 3 Zrotation Xrotation Yrotation
                JOINT rRing2
                {
                  OFFSET -2.60934 -0.819778 -0.0198488
                  CHANNELS 3 Zrotation Xrotation Yrotation
                  End Site
                  {
                    OFFSET -2.33842 -0.294052 0.168128
                  }
                }
              }
              JOINT rPinky1
              {
                OFFSET -8.27202 -0.0477905 -0.4584
                CHANNELS 3 Zrotation Xrotation Yrotation
                JOINT rPinky2
                {
                  OFFSET -1.82734 -0.647385 -0.700984
                  CHANNELS 3 Zrotation Xrotation Yrotation
                  End Site
                  {
                    OFFSET -1.69225 -0.51767 -0.607171
                  }
                }
              }
            }
          }
        }
      }
      JOINT lCollar
      {
        OFFSET 2.68224 19.2634 -4.8768
        CHANNELS 3 Zrotation Xrotation Yrotation
        JOINT lShldr
        {
          OFFSET 8.77824 -1.95073 1.46304
          CHANNELS 3 Zrotation Xrotation Yrotation
          JOINT lForeArm
          {
            OFFSET 28.1742 -1.7115 0.48768
            CHANNELS 3 Zrotation Xrotation Yrotation
            JOINT lHand
            {
              OFFSET 22.5879 0.773209 7.07136
              CHANNELS 3 Zrotation Xrotation Yrotation
              JOINT lThumb1
              {
                OFFSET 1.2192 -0.487915 3.41376
                CHANNELS 3 Zrotation Xrotation Yrotation
                JOINT lThumb2
                {
                  OFFSET 3.37035 -0.52449 3.41376
                  CHANNELS 3 Zrotation Xrotation Yrotation
                  End Site
                  {
                    OFFSET 1.78271 -1.18214 1.43049
                  }
                }
              }
              JOINT lIndex1
              {
                OFFSET 7.75947 0.938293 5.60832
                CHANNELS 3 Zrotation Xrotation Yrotation
                JOINT lIndex2
                {
                  OFFSET 2.54057 -0.884171 1.56538
                  CHANNELS 3 Zrotation Xrotation Yrotation
                  End Site
                  {
                    OFFSET 1.62519 -0.234802 1.16502
                  }
                }
              }
              JOINT lMid1
              {
                OFFSET 8.24714 1.18213 3.41376
                CHANNELS 3 Zrotation Xrotation Yrotation
                JOINT lMid2
                {
                  OFFSET 3.10165 -0.590103 1.0647
                  CHANNELS 3 Zrotation Xrotation Yrotation
                  End Site
                  {
                    OFFSET 2.48547 -0.328903 0.83742
                  }
                }
              }
              JOINT lRing1
              {
                OFFSET 8.82822 0.546677 1.51678
                CHANNELS 3 Zrotation Xrotation Yrotation
                JOINT lRing2
                {
                  OFFSET 2.60934 -0.819778 -0.0198488
                  CHANNELS 3 Zrotation Xrotation Yrotation
                  End Site
                  {
                    OFFSET 2.33842 -0.294052 0.168128
                  }
                }
              }
              JOINT lPinky1
              {
                OFFSET 8.27202 -0.0477905 -0.4584
                CHANNELS 3 Zrotation Xrotation Yrotation
                JOINT lPinky2
                {
                  OFFSET 1.82734 -0.647385 -0.700984
                  CHANNELS 3 Zrotation Xrotation Yrotation
                  End Site
                  {
                    OFFSET 1.69225 -0.51767 -0.607171
                  }
                }
              }
            }
          }
        }
      }
    }
  }
  JOINT rButtock
  {
    OFFSET -8.77824 4.35084 1.2192
    CHANNELS 3 Zrotation Xrotation Yrotation
    JOINT rThigh
    {
      OFFSET 0 -1.70687 -2.19456
      CHANNELS 3 Zrotation Xrotation Yrotation
      JOINT rShin
      {
        OFFSET 0 -36.8199 0.73152
        CHANNELS 3 Zrotation Xrotation Yrotation
        JOINT rFoot
        {
          OFFSET 0.73152 -45.1104 -5.12064
          CHANNELS 3 Zrotation Xrotation Yrotation
          End Site
          {
            OFFSET -1.1221 -3.69964 12.103
          }
        }
      }
    }
  }
  JOINT lButtock
  {
    OFFSET 8.77824 4.35084 1.2192
    CHANNELS 3 Zrotation Xrotation Yrotation
    JOINT lThigh
    {
      OFFSET 0 -1.70687 -2.19456
      CHANNELS 3 Zrotation Xrotation Yrotation
      JOINT lShin
      {
        OFFSET 0 -36.8199 0.73152
        CHANNELS 3 Zrotation Xrotation Yrotation
        JOINT lFoot
        {
          OFFSET -0.73152 -45.1104 -5.12064
          CHANNELS 3 Zrotation Xrotation Yrotation
          End Site
          {
            OFFSET 1.1221 -3.69964 12.103
          }
        }
      }
    }
  }
}
MOTION
Frames:	9
Frame Time:	0.00833333
0.0 0.0 0.0 0.0 0.0 0.0 0.0 0.0 0.0 0.0 0.0 0.0 0.0 0.0 0.0 0.0 0.0 0.0 0.0 0.0 0.0 0.0 0.0 0.0 0.0 0.0 0.0 0.0 0.0 0.0 0.0 0.0 0.0 0.0 0.0 0.0 0.0 0.0 0.0 0.0 0.0 0.0 0.0 0.0 0.0 0.0 0.0 0.0 0.0 0.0 0.0 0.0 0.0 0.0 0.0 0.0 0.0 0.0 0.0 0.0 0.0 0.0 0.0 0.0 0.0 0.0 0.0 0.0 0.0 0.0 0.0 0.0 0.0 0.0 0.0 0.0 0.0 0.0 0.0 0.0 0.0 0.0 0.0 0.0 0.0 0.0 0.0 0.0 0.0 0.0 0.0 0.0 0.0 0.0 0.0 0.0 0.0 0.0 0.0 0.0 0.0 0.0 0.0 0.0 0.0 0.0 0.0 0.0 0.0 0.0 0.0 0.0 0.0 0.0 0.0 0.0 0.0 0.0 0.0 0.0 0.0 0.0 0.0 0.0 0.0 0.0 0.0 0.0 0.0 0.0 0.0 0.0
-89.3675 84.0213 -4.6449 -76.006982 85.804177 -63.66361 2.461373 -7.843335 -162.515928 -1.119325 -5.999206 164.704851 -8.883823 11.757201 -74.443101 16.430883 5.782773 71.814883 0.004268 0.0 0.003123 0.004966 -0.0 -0.002763 -59.832839 -86.721382 -81.633186 -159.741055 -61.912451 -162.686573 3.0281 -9.365949 -66.103512 167.135801 -31.231426 141.181392 -4.165895 4.057677 0.783808 -152.963251 -61.943629 116.338517 -158.400322 -30.156274 122.605101 145.786438 -67.305515 86.402211 -82.839958 61.111323 74.532551 2.580988 2.470985 0.501339 0.000221 -0.061105 -0.017437 -155.99325 -11.18264 173.190828 32.028282 83.319744 6.219622 1.501523 0.33862 -0.894584 13.743441 42.431488 -15.569595 -148.130261 -78.023927 -117.566781 -174.935712 -24.265253 -108.268816 -169.629137 -23.326502 -142.665003 172.823307 -10.501421 -89.92752 -177.296244 -18.710965 -95.93927 -2.326281 -3.867658 1.259664 65.476437 48.47657 -50.842534 -173.123597 -66.297808 -137.614198 -29.646784 -60.136587 -6.931991 70.380731 -72.129155 87.280609 -13.867876 29.738862 0.479475 -25.926996 79.093141 -10.823587 156.571665 39.098899 147.517231 -0.0 0.000945 0.000395 0.168414 -14.44869 -158.386572 -12.955172 -13.978218 -92.251506 -81.027811 -42.5773 -174.119567 0.0 -0.000909 0.000209 0.127944 -7.163867 72.99235 5.829389 -2.892308 -36.275161 62.07139 -39.588639 -33.668684
-89.65429999999999 83.958 -4.8805000000000005 -74.43873 85.755258 -62.031743 3.202781 -11.304038 -180.0 0.316752 -7.62598 -175.482068 10.984571 14.707816 98.281604 -18.644739 11.920486 -102.617101 0.003068 -0.0 -0.000144 -0.00265 0.0 -0.000494 -152.68876 11.677055 158.228967 159.603925 4.151372 151.243212 173.588621 5.831716 78.258421 178.366623 -6.535535 143.523397 -78.031204 38.689379 42.412185 126.699132 -55.268144 53.165682 -90.224927 41.071465 75.796733 -162.989217 -7.902877 114.715666 7.904485 -24.807513 -3.014664 -163.342431 -4.700878 143.320756 -72.350946 72.975443 90.217751 -152.088733 62.477512 162.774842 7.928463 24.811668 7.001813 -9.171737 -23.854222 -10.151951 155.809769 -5.555495 -162.266463 42.941555 42.341053 -17.514743 -9.789915 -68.913561 96.068574 -173.116449 -18.285378 -143.238137 171.652561 -9.33664 -89.949558 -11.820337 -59.704096 -13.864591 50.385244 40.827192 -40.024467 162.086993 -7.187331 -112.240666 -23.904413 -61.333712 -1.400887 -168.554201 -63.288283 -133.714375 -0.003849 1.771405 -0.556387 -6.003558 33.717811 -5.590158 79.224409 -51.407455 77.662206 -25.972154 66.774574 -6.755007 -179.997866 75.750782 -0.00146 178.255993 53.05528 180.0 7.834789 -21.735154 98.055211 160.029326 -64.893774 -90.212697 0.002354 -0.00017 0.001766 2.001538 -12.433074 129.673705 18.006227 -7.482104 87.884387 107.130248 -8.188189 -177.816532
-89.94529999999999 83.8947 -5.1202 -72.200257 85.706369 -59.705612 5.586799 -14.099215 -158.122078 -1.796668 -8.715818 164.717906 1.31165 7.447172 17.228556 -3.975547 -14.733496 -26.139452 0.001638 0.0 0.001692 -0.004085 -0.0 0.001727 -0.217537 1.28748 0.288196 71.035695 17.008641 -3.297658 -7.22772 -4.16151 92.114547 -4.636141 -6.217211 -2.736886 88.927826 -50.830952 37.600518 -33.15854 5.113304 -8.085151 -138.49414 4.896571 114.864823 -5.138697 24.505458 -2.754006 -159.364834 -2.685927 142.596144 13.371666 -29.994017 -0.97134 -75.672627 -72.115859 -92.829031 -68.897198 -82.31332 -94.888177 -129.565251 -22.768812 -127.192147 -127.556524 -27.919912 -125.723679 14.938797 44.240779 -16.829226 89.566497 15.086057 -131.889274 -18.369315 10.862145 130.870213 178.221864 4.172644 -143.162062 -83.253984 -50.257735 -33.616176 159.472932 -29.293301 -127.851772 -45.281017 -63.865982 -4.305351 61.552325 52.491593 -50.975873 36.03584 51.723282 -29.832002 -5.342144 -5.836034 0.604475 0.015654 -1.323468 0.413793 23.273361 72.960721 -36.410438 1.2048 -3.047446 1.115293 -1.691698 -2.342953 0.718716 0.005589 -0.000172 0.002794 -1.348098 -27.682726 -2.899845 2.79789 28.499553 140.616644 -64.768173 -7.879574 -161.858109 0.005803 -0.001053 0.002902 4.652697 -14.301118 -0.0 -9.308902 16.757639 -110.831042 0.486867 33.610425 115.214158
-90.199 83.84660000000001 -5.3439 -71.521037 85.713715 -59.012046 3.321854 -13.987509 91.268296 7.517335 -1.598095 -83.60527 -10.346287 17.699357 -70.100393 29.523965 2.375772 59.746723 -0.001406 0.0 -0.00285 -0.001063 0.0 -0.00341 4.224814 -44.097081 -8.516955 -133.093825 25.732269 -129.190014 101.597656 88.167026 122.980301 -176.13298 -1.169559 142.66383 4.529869 -4.514522 -0.520816 -67.845181 30.057408 60.358259 -140.764739 1.380593 116.228267 -24.638302 44.423581 11.660541 -167.297564 -27.767471 145.261057 2.584997 1.621936 0.568885 0.000904 -0.018517 -0.005658 -155.413554 -1.110524 171.982125 -135.068042 -13.38424 -132.470373 -146.586433 10.34828 -141.505357 82.877467 68.299464 -86.000653 116.577797 1.730941 -91.72867 176.308753 -0.063052 75.862689 8.784997 10.353263 1.154287 90.496179 38.31259 -51.260737 78.235237 -2.918509 -58.617613 -0.185343 -0.30009 0.105016 79.506457 48.083712 -62.087443 0.571586 1.648381 -0.32097 -3.099855 0.408544 -0.027496 145.12093 0.227738 179.197187 -11.655692 22.795027 6.387247 145.176782 12.06786 141.821134 127.306112 -28.801202 124.758226 -179.991241 75.749489 -0.009037 178.467857 42.889842 0.0 -10.171648 29.373728 -95.323199 18.565495 27.398441 83.227439 0.0 0.000305 -0.000379 6.0399 -19.190679 180.0 10.367015 -20.588112 74.984911 157.93769 -10.761568 -132.015561
-90.4093 83.8377 -5.5311 -74.014012 85.677747 -61.471892 7.739363 -16.536041 -140.298011 -4.171493 -9.284839 148.753794 -9.538014 15.762653 -56.521162 27.368349 -4.618337 46.415939 0.001461 0.0 0.004528 -0.004635 0.0 -0.000803 -155.717033 -4.925317 162.135592 -76.82434 14.839544 7.367365 -69.710431 35.005539 -102.902366 149.549819 -68.552539 127.537217 -172.671898 -10.349217 89.931595 -9.471917 -48.921215 4.536316 -145.338121 -6.265025 118.676909 -106.953293 51.816004 85.263392 -160.098914 -4.900942 142.969236 -163.635527 -5.838095 143.072373 0.003224 1.855241 0.583883 -156.728537 -34.925983 175.977546 -128.876919 -23.776974 -126.527353 -161.39615 55.946636 -147.123178 157.323332 -17.488911 -164.608981 -116.817422 6.333002 166.781709 32.666951 12.435534 -125.930533 -3.964616 -30.07888 1.616005 93.743563 37.96393 -53.548664 -25.963244 -30.755915 -22.98785 -88.792676 -75.498397 -40.050804 60.879935 53.996854 -50.21605 -68.985391 -80.15351 -40.580277 154.20714 20.018277 -138.526028 70.38169 -72.128818 87.280811 -13.869881 29.738853 0.479523 145.805444 14.097706 142.379105 11.013154 -25.313147 13.337811 0.000433 -0.001113 -0.000556 -1.365949 -35.111202 -2.373972 2.66275 26.335023 64.660458 -97.999714 62.209694 17.424381 179.985573 75.748017 0.01187 -169.921294 56.928838 33.311313 4.734933 17.685097 -118.31584 159.81606 -44.757321 -109.681966
-90.51259999999999 83.8239 -5.6263 -77.91584 85.582629 -65.56229 4.979521 -16.743309 155.651326 4.458786 -9.283806 -147.253764 3.732145 28.41433 174.004824 -1.081771 37.837672 173.656539 -0.000415 0.0 -0.001079 -0.000415 0.0 -0.001079 0.118223 -0.714097 -0.157372 -81.776261 -9.34644 -173.596786 -174.897591 -41.232778 -73.026539 -9.098646 2.242203 -2.263419 1.842493 -1.82713 -0.253701 -133.346324 -32.088567 117.700662 12.216693 -21.78466 -5.120433 -155.394973 -8.400032 110.791413 -36.034278 51.723553 29.832196 -13.279117 36.40617 10.759157 -145.123183 1.1218 -179.479232 11.726509 26.404466 -5.992844 7.928886 24.811449 7.003267 -147.381052 10.261743 -143.238156 -1.929356 -13.545164 2.784463 96.622141 53.699238 169.615004 128.418847 18.572694 -1.122144 -146.930319 -65.052205 -125.400906 171.706567 -9.38836 -89.947911 149.37229 5.331937 -77.234227 -10.747134 -19.047966 4.725214 -13.334481 0.675466 1.048578 -10.082977 -31.592336 3.252729 170.307309 -25.970049 -144.27085 145.099386 -1.520587 178.649108 -12.049988 29.596184 5.643622 29.626919 -40.969291 28.617443 153.720124 36.856948 147.940125 -0.001476 0.000865 -0.0 -1.642242 -35.317123 -0.0 -7.11124 26.578713 -37.213902 58.305831 7.520552 12.23116 -0.003425 -0.000989 -0.001713 5.767787 -20.0696 141.909906 10.900765 -19.21224 -47.180178 -112.37461 62.296955 14.990913
-90.4922 83.7684 -5.521100000000001 -82.496408 85.135643 -70.567913 4.69861 -11.858928 21.798877 1.96076 5.570744 -14.34676 4.450181 8.746631 30.58536 -12.430567 -12.790149 -44.265184 0.004879 0.0 0.003212 -0.001101 0.0 -0.002233 -29.828052 58.184121 32.233697 19.17503 28.946007 82.39878 -12.588967 -49.924499 93.602899 -5.394445 -7.844724 -3.121902 -171.653569 -9.336098 89.950376 -149.366918 5.313576 77.214677 169.567708 -65.842485 109.955587 -114.07468 43.848818 95.543068 -36.037408 51.722408 29.83343 -167.03732 -16.92679 144.11543 -69.298701 72.946975 87.016757 -76.713256 83.140173 85.611468 44.724716 86.378232 -5.357494 -151.983976 23.052343 -144.995137 0.048504 0.292507 -0.064365 88.400908 -23.957225 -175.821344 -22.498068 10.521257 146.437009 174.950823 10.87206 -142.099983 166.631657 -4.304819 -89.771069 -47.26102 -64.867294 -37.62593 166.823791 -43.973532 -122.060468 170.077 -36.46663 -116.856153 160.673468 -6.667536 -143.246144 -2.535984 1.971058 -0.6316 145.098856 -1.520811 178.649569 154.312817 -10.069188 177.869084 23.389481 -36.350692 22.491017 114.116661 -42.446078 113.63643 -0.000205 -0.000282 0.000264 -1.974077 -36.908421 175.081382 -3.51324 -35.809496 -66.758466 53.376926 65.490532 -147.282227 0.004126 -0.000117 0.001031 5.774516 -17.669287 18.426936 -3.770251 16.426289 -82.539189 92.89243 -85.181911 177.753602
-90.7991 83.8142 -5.8959 -81.052856 85.437355 -68.789446 5.292816 -11.359047 1.262111 -0.953944 5.782108 6.127163 -9.22068 17.429043 -75.685366 27.005947 3.064775 63.32724 -0.000593 0.0 -0.003349 -0.000593 0.0 -0.003349 -149.905695 22.421849 154.975408 113.619436 -2.797387 142.161119 -178.640202 -22.410593 39.357578 -177.727964 -4.074571 143.002713 -177.746675 -15.324604 89.569414 -91.827883 14.090049 34.987295 -93.641446 40.182092 78.832895 -149.378259 14.562427 111.008712 -175.765616 -50.334634 144.098511 -7.603142 26.102472 6.377684 -72.756918 -72.144607 -89.771557 14.726082 0.856859 -4.474586 1.133946 3.040549 1.044735 -22.807251 -40.173233 -23.482451 142.973697 39.431653 -147.390134 -65.745227 -41.01106 -116.599645 84.515246 -33.553409 -56.75523 -26.705941 -62.6989 -13.54233 170.5668 -8.250752 -89.948884 38.667393 -23.265612 -6.332008 -5.922345 -10.174346 2.968287 65.043013 48.650022 -51.070561 39.289055 53.365927 -32.878273 168.771013 -22.203232 -144.220673 75.672004 -72.1168 92.828734 150.974177 -0.721366 -176.519493 -12.252167 41.424872 -10.281678 9.489998 -23.756956 10.322965 0.000283 -0.000436 -0.000364 -1.744802 -36.537666 -171.687365 -8.220982 -28.646991 -149.817185 -173.634597 -34.484661 69.348852 0.002103 -0.000436 0.001052 5.922691 -17.355997 1.885199 -9.456099 16.173432 -82.138749 18.181232 28.030797 80.702979
